<svg width="226" height="63" viewBox="0 0 226 63" fill="none" xmlns="http://www.w3.org/2000/svg">
<g clip-path="url(#clip0_146_560)">
<path fill-rule="evenodd" clip-rule="evenodd" d="M226.275 31.5C226.275 45.7676 223.114 56.1441 219.582 63H214.004C216.235 56.3294 218.652 43.3588 218.652 31.5C218.652 19.6412 216.235 6.67059 214.004 0H219.582C223.114 6.85588 226.275 17.2324 226.275 31.5Z" fill="#D42126"/>
<path fill-rule="evenodd" clip-rule="evenodd" d="M6.69343 0H12.2713C9.85422 6.67059 7.43714 19.6412 7.43714 31.5C7.43714 43.3588 9.85422 56.3294 12.0854 63H6.5075C3.16079 56.1441 0 45.7676 0 31.5C0 17.2324 3.16079 6.85588 6.69343 0Z" fill="#D42126"/>
<path d="M47.7576 30.1574C42.5741 29.5377 37.1832 27.782 37.1832 25.9229C37.1832 22.7213 42.2631 21.0688 47.0319 21.0688H48.0686C53.1484 21.0688 57.8135 23.8574 57.8135 26.0262V27.1623C57.8135 27.4721 58.1245 27.782 58.4355 27.782H60.5089C60.8199 27.782 61.131 27.4721 61.131 27.1623V25.9229C61.131 21.1721 54.0814 17.6607 47.8612 17.6607H46.7209C40.397 17.7639 33.5548 20.3459 33.5548 25.9229C33.5548 32.1197 45.7878 33.2557 47.1355 33.359C52.008 33.7721 57.7099 35.7344 57.7099 37.5934C57.7099 40.7951 52.63 42.5508 47.9649 42.5508H46.8245C41.7447 42.5508 37.0796 39.7623 37.0796 37.5934V36.4574C37.0796 36.1475 36.7686 35.8377 36.4576 35.8377H34.3842C34.0732 35.8377 33.7621 36.1475 33.7621 36.4574V37.5934C33.7621 42.3443 40.8117 45.8557 47.0319 45.8557H48.0686C54.4961 45.8557 61.3383 43.2738 61.3383 37.5934C61.3383 31.5 49.2089 30.2607 47.7576 30.1574ZM102.392 17.5574H100.318C100.007 17.5574 99.6961 17.8672 99.6961 18.177V37.4902C99.6961 40.6918 94.6163 42.4475 89.9511 42.4475H88.8108C83.7309 42.4475 79.0658 39.659 79.0658 37.4902V18.177C79.0658 17.8672 78.7548 17.5574 78.4438 17.5574H76.3704C76.0594 17.5574 75.7484 17.8672 75.7484 18.177V37.6967C75.7484 42.4475 82.7979 45.959 89.0181 45.959H90.1585C95.0309 45.959 99.1777 44.6164 101.355 42.241C102.599 40.8984 103.221 39.3492 103.014 37.4902V18.177C102.91 17.8672 102.703 17.5574 102.392 17.5574ZM141.786 40.382C141.786 40.8984 141.06 41.2082 140.749 40.7951L123.333 18.6934C122.711 17.9705 121.881 17.5574 120.845 17.5574C120.43 17.5574 120.015 17.6607 119.601 17.7639C118.46 18.2803 117.631 19.3131 117.631 20.5525V45.2361C117.631 45.5459 117.942 45.8557 118.253 45.8557H120.326C120.637 45.8557 120.948 45.5459 120.948 45.2361L121.156 23.0311C121.156 22.5148 121.881 22.2049 122.192 22.7213L139.505 44.8229C140.024 45.5459 140.957 45.959 141.89 45.959C142.304 45.959 142.719 45.8557 143.134 45.7525C144.274 45.3393 145.103 44.2033 145.103 42.9639V18.177C145.103 17.8672 144.792 17.5574 144.481 17.5574H142.408C142.097 17.5574 141.786 17.8672 141.786 18.177V40.382ZM176.412 17.5574C167.081 17.5574 159.41 23.8574 159.41 31.7066C159.41 39.5557 166.978 45.8557 176.412 45.8557C185.742 45.8557 193.414 39.5557 193.414 31.7066C193.414 23.8574 185.742 17.5574 176.412 17.5574ZM176.412 42.7574C169.051 42.7574 162.935 37.8 162.935 31.9131C162.935 25.9229 168.947 21.0688 176.412 21.0688C183.98 21.0688 189.889 25.8197 189.889 31.9131C189.889 37.9033 183.876 42.7574 176.412 42.7574Z" fill="white"/>
</g>
<defs>
<clipPath id="clip0_146_560">
<rect width="226" height="63" fill="white"/>
</clipPath>
</defs>
</svg>
